# xmcd
# 
# Track frame offsets:
#     150
#     16650
#     32762
#     49192
#     65837
#     82062
#     97500
#     113350
#     133707
#     153000
#     170662
#     189775
#     211050
# 
# Disc length: 3085
# 
# Revision: 2
# Processed by: cddbd v1.5.2PL0 Copyright (c) Steve Scherf et al.
# Submitted via: fre:ac v1.0.31
# 
DISCID=960c0b0d
DTITLE=Seiko Matsuda - Seiko Suite Disc 02
DYEAR=0
DGENRE=
TTITLE0=01
TTITLE1=02
TTITLE2=03
TTITLE3=04
TTITLE4=05
TTITLE5=06
TTITLE6=07
TTITLE7=08
TTITLE8=09
TTITLE9=10
TTITLE10=11
TTITLE11=12
TTITLE12=13
EXTD=
EXTT0=
EXTT1=
EXTT2=
EXTT3=
EXTT4=
EXTT5=
EXTT6=
EXTT7=
EXTT8=
EXTT9=
EXTT10=
EXTT11=
EXTT12=
PLAYORDER=
